<svg xmlns="http://www.w3.org/2000/svg" viewBox="0 0 440 458" width="440" height="458" role="img" aria-labelledby="t d" preserveAspectRatio="xMidYMid meet">
  <title id="t">contact - get in touch</title>
  <desc id="d">Contact and connect. Get in touch. Website aryaniq.com. GitHub at cybersec-iq. Location Muscat, Oman. Enquiries via aryaniq.com.</desc>
  <defs>
    <pattern id="grid" width="28" height="28" patternUnits="userSpaceOnUse">
      <path d="M28 0H0V28" fill="none" stroke="#12242E" stroke-width="1"/>
    </pattern>
    <pattern id="grid-fine" width="10" height="10" patternUnits="userSpaceOnUse">
      <path d="M10 0H0V10" fill="none" stroke="#0B1820" stroke-width="0.7"/>
    </pattern>
    <pattern id="scan" width="3" height="3" patternUnits="userSpaceOnUse">
      <rect width="3" height="1" fill="#00E5FF" opacity="0.035"/>
    </pattern>
    <linearGradient id="barGrad" x1="0" y1="0" x2="0" y2="1">
      <stop offset="0%" stop-color="#0B1A23"/><stop offset="100%" stop-color="#050D13"/>
    </linearGradient>
    <linearGradient id="ruleGreen" x1="0" y1="0" x2="1" y2="0">
      <stop offset="0%" stop-color="#39FF14" stop-opacity="0.95"/>
      <stop offset="55%" stop-color="#00E5FF" stop-opacity="0.35"/>
      <stop offset="100%" stop-color="#00E5FF" stop-opacity="0"/>
    </linearGradient>
    <linearGradient id="ruleCyan" x1="0" y1="0" x2="1" y2="0">
      <stop offset="0%" stop-color="#00E5FF" stop-opacity="0.8"/>
      <stop offset="100%" stop-color="#00E5FF" stop-opacity="0"/>
    </linearGradient>
    <filter id="glowSm" x="-40%" y="-80%" width="180%" height="260%">
      <feGaussianBlur stdDeviation="1.6" result="b"/>
      <feMerge><feMergeNode in="b"/><feMergeNode in="SourceGraphic"/></feMerge>
    </filter>
    <filter id="glowMd" x="-40%" y="-80%" width="180%" height="260%">
      <feGaussianBlur stdDeviation="3.4" result="b"/>
      <feMerge><feMergeNode in="b"/><feMergeNode in="SourceGraphic"/></feMerge>
    </filter>
    <filter id="glowLg" x="-35%" y="-70%" width="170%" height="240%">
      <feGaussianBlur stdDeviation="6" result="b"/>
      <feMerge><feMergeNode in="b"/><feMergeNode in="SourceGraphic"/></feMerge>
    </filter>
    <style>
      .m { font-family: ui-monospace, "JetBrains Mono", "IBM Plex Mono", "Space Mono", "SFMono-Regular", Menlo, Consolas, monospace; }
      .blink { animation: blink 1.15s steps(1) infinite; }
      .live  { animation: live 2.8s ease-in-out infinite; }
      .flow  { stroke-dasharray: 4 8; animation: flow 3.2s linear infinite; }
      .rise  { animation: rise .55s ease-out both; }
      @keyframes blink { 0%,49% { opacity: 1; } 50%,100% { opacity: 0; } }
      @keyframes live  { 0%,100% { opacity: .38; } 50% { opacity: 1; } }
      @keyframes flow  { to { stroke-dashoffset: -24; } }
      @keyframes rise  { from { opacity: 0; transform: translateY(7px); }
                          to { opacity: 1; transform: translateY(0); } }
      @media (prefers-reduced-motion: reduce) {
        .blink, .live, .flow, .rise { animation: none; }
      }
    </style>
  </defs>
  <g class="m">
    <rect width="440" height="458" fill="#03070A"/>
    <rect width="440" height="458" fill="url(#grid)" opacity="0.5"/>
    <rect width="440" height="458" fill="url(#scan)"/>
    <rect x="10" y="20" width="420" height="426" rx="4" fill="#050D13" fill-opacity="1.0" stroke="#1B3541" stroke-width="1.2"/>
    <g stroke="#FFE600" stroke-width="2" fill="none" opacity="0.85"><path d="M10 35 V20 H25"/><path d="M415 20 H430 V35"/></g>
    <text x="28" y="50" font-size="11.5" fill="#00E5FF" letter-spacing="2.6">// CONTACT &amp; CONNECT</text>
    <g transform="translate(28 62) scale(1.1667)" fill="none" stroke="#39FF14" stroke-width="1.63" stroke-linecap="square" stroke-linejoin="miter" vector-effect="non-scaling-stroke"><rect x="2.5" y="5" width="19" height="14" rx="1"/><path d="M2.5 6.2 L12 13.4 L21.5 6.2"/></g>
    <text x="68" y="88" font-size="26" letter-spacing="1.6" xml:space="preserve"><tspan fill="#39FF14" font-weight="700">GET IN </tspan><tspan fill="#00E5FF" font-weight="700">TOUCH</tspan></text>
    <text x="28" y="114" font-size="12.5" fill="#C3CDD6">Have a project or an idea?</text>
    <rect x="28.0" y="130" width="187.0" height="146" rx="3" fill="#08141C" fill-opacity="1.0" stroke="#00E5FF" stroke-width="1.3"/>
    <g stroke="#00E5FF" stroke-width="1.6" fill="none" opacity="0.55"><path d="M28.0 142 V130 H40.0"/><path d="M203.0 130 H215.0 V142"/><path d="M28.0 264 V276 H40.0"/><path d="M203.0 276 H215.0 V264"/></g>
    <g transform="translate(108.5 150) scale(1.0833)" fill="none" stroke="#00E5FF" stroke-width="1.75" stroke-linecap="square" stroke-linejoin="miter" vector-effect="non-scaling-stroke"><circle cx="12" cy="12" r="9"/><ellipse cx="12" cy="12" rx="3.9" ry="9"/><path d="M3 12 h18M4.6 7 h14.8M4.6 17 h14.8"/></g>
    <text x="121.5" y="198" font-size="12.5" fill="#00E5FF" font-weight="700" letter-spacing="2.4" text-anchor="middle">WEBSITE</text>
    <text x="121.5" y="220" font-size="11.5" fill="#EAF2F7" letter-spacing="0.4" text-anchor="middle">aryaniq.com</text>
    <text x="121.5" y="242" font-size="10" fill="#6E828F" text-anchor="middle">Portfolio, services and</text>
    <text x="121.5" y="256" font-size="10" fill="#6E828F" text-anchor="middle">current work.</text>
    <rect x="225.0" y="130" width="187.0" height="146" rx="3" fill="#08141C" fill-opacity="1.0" stroke="#39FF14" stroke-width="1.3"/>
    <g stroke="#39FF14" stroke-width="1.6" fill="none" opacity="0.55"><path d="M225.0 142 V130 H237.0"/><path d="M400.0 130 H412.0 V142"/><path d="M225.0 264 V276 H237.0"/><path d="M400.0 276 H412.0 V264"/></g>
    <g transform="translate(305.5 150) scale(1.0833)" fill="none" stroke="#39FF14" stroke-width="1.75" stroke-linecap="square" stroke-linejoin="miter" vector-effect="non-scaling-stroke"><path d="M12 2.2 a9.8 9.8 0 0 0-3.1 19.1 c.5.1.7-.2.7-.5 v-1.8 c-2.7.6-3.3-1.3-3.3-1.3 -.4-1.1-1.1-1.4-1.1-1.4 -.9-.6.1-.6.1-.6 1 .1 1.5 1 1.5 1 .9 1.5 2.3 1.1 2.9.8 .1-.6.3-1.1.6-1.3 -2.2-.2-4.5-1.1-4.5-4.9 0-1.1.4-2 1-2.7 -.1-.3-.4-1.3.1-2.7 0 0 .8-.3 2.7 1 a9.4 9.4 0 0 1 4.9 0 c1.9-1.3 2.7-1 2.7-1 .5 1.4.2 2.4.1 2.7 .6.7 1 1.6 1 2.7 0 3.8-2.3 4.7-4.5 4.9 .4.3.7.9.7 1.9 v2.8 c0 .3.2.6.7.5 A9.8 9.8 0 0 0 12 2.2 Z"/></g>
    <text x="318.5" y="198" font-size="12.5" fill="#39FF14" font-weight="700" letter-spacing="2.4" text-anchor="middle">GITHUB</text>
    <text x="318.5" y="220" font-size="11.5" fill="#EAF2F7" letter-spacing="0.4" text-anchor="middle">@cybersec-iq</text>
    <text x="318.5" y="242" font-size="10" fill="#6E828F" text-anchor="middle">Code, tooling and open</text>
    <text x="318.5" y="256" font-size="10" fill="#6E828F" text-anchor="middle">builds.</text>
    <rect x="28.0" y="286" width="187.0" height="146" rx="3" fill="#08141C" fill-opacity="1.0" stroke="#FFE600" stroke-width="1.3"/>
    <g stroke="#FFE600" stroke-width="1.6" fill="none" opacity="0.55"><path d="M28.0 298 V286 H40.0"/><path d="M203.0 286 H215.0 V298"/><path d="M28.0 420 V432 H40.0"/><path d="M203.0 432 H215.0 V420"/></g>
    <g transform="translate(108.5 306) scale(1.0833)" fill="none" stroke="#FFE600" stroke-width="1.75" stroke-linecap="square" stroke-linejoin="miter" vector-effect="non-scaling-stroke"><path d="M12 2 a7 7 0 0 1 7 7 c0 5.4-7 13-7 13 S5 14.4 5 9 a7 7 0 0 1 7-7 Z"/><circle cx="12" cy="9" r="2.6"/></g>
    <text x="121.5" y="354" font-size="12.5" fill="#FFE600" font-weight="700" letter-spacing="2.4" text-anchor="middle">LOCATION</text>
    <text x="121.5" y="376" font-size="11.5" fill="#EAF2F7" letter-spacing="0.4" text-anchor="middle">Muscat, Oman</text>
    <text x="121.5" y="398" font-size="10" fill="#6E828F" text-anchor="middle">Building globally, shipping</text>
    <text x="121.5" y="412" font-size="10" fill="#6E828F" text-anchor="middle">locally.</text>
    <rect x="225.0" y="286" width="187.0" height="146" rx="3" fill="#08141C" fill-opacity="1.0" stroke="#2979FF" stroke-width="1.3"/>
    <g stroke="#2979FF" stroke-width="1.6" fill="none" opacity="0.55"><path d="M225.0 298 V286 H237.0"/><path d="M400.0 286 H412.0 V298"/><path d="M225.0 420 V432 H237.0"/><path d="M400.0 432 H412.0 V420"/></g>
    <g transform="translate(305.5 306) scale(1.0833)" fill="none" stroke="#2979FF" stroke-width="1.75" stroke-linecap="square" stroke-linejoin="miter" vector-effect="non-scaling-stroke"><rect x="2.5" y="5" width="19" height="14" rx="1"/><path d="M2.5 6.2 L12 13.4 L21.5 6.2"/></g>
    <text x="318.5" y="354" font-size="12.5" fill="#2979FF" font-weight="700" letter-spacing="2.4" text-anchor="middle">ENQUIRIES</text>
    <text x="318.5" y="376" font-size="11.5" fill="#EAF2F7" letter-spacing="0.4" text-anchor="middle">via aryaniq.com</text>
    <text x="318.5" y="398" font-size="10" fill="#6E828F" text-anchor="middle">Project, role or</text>
    <text x="318.5" y="412" font-size="10" fill="#6E828F" text-anchor="middle">collaboration.</text>
  </g>
</svg>
