<svg xmlns="http://www.w3.org/2000/svg" viewBox="0 0 1200 520" width="1200" height="520" role="img" aria-labelledby="t d" preserveAspectRatio="xMidYMid meet">
  <title id="t">whoami - Aryan IQ</title>
  <desc id="d">Terminal identity panel. Prompt cybersec-iq at github, tilde profile, command whoami. Output ARYAN IQ. Full-stack developer, cybersecurity, AI systems builder. Location Muscat, Oman. Status building. Mission nothing is impossible.</desc>
  <defs>
    <pattern id="grid" width="28" height="28" patternUnits="userSpaceOnUse">
      <path d="M28 0H0V28" fill="none" stroke="#12242E" stroke-width="1"/>
    </pattern>
    <pattern id="grid-fine" width="10" height="10" patternUnits="userSpaceOnUse">
      <path d="M10 0H0V10" fill="none" stroke="#0B1820" stroke-width="0.7"/>
    </pattern>
    <pattern id="scan" width="3" height="3" patternUnits="userSpaceOnUse">
      <rect width="3" height="1" fill="#00E5FF" opacity="0.035"/>
    </pattern>
    <linearGradient id="barGrad" x1="0" y1="0" x2="0" y2="1">
      <stop offset="0%" stop-color="#0B1A23"/><stop offset="100%" stop-color="#050D13"/>
    </linearGradient>
    <linearGradient id="ruleGreen" x1="0" y1="0" x2="1" y2="0">
      <stop offset="0%" stop-color="#39FF14" stop-opacity="0.95"/>
      <stop offset="55%" stop-color="#00E5FF" stop-opacity="0.35"/>
      <stop offset="100%" stop-color="#00E5FF" stop-opacity="0"/>
    </linearGradient>
    <linearGradient id="ruleCyan" x1="0" y1="0" x2="1" y2="0">
      <stop offset="0%" stop-color="#00E5FF" stop-opacity="0.8"/>
      <stop offset="100%" stop-color="#00E5FF" stop-opacity="0"/>
    </linearGradient>
    <filter id="glowSm" x="-40%" y="-80%" width="180%" height="260%">
      <feGaussianBlur stdDeviation="1.6" result="b"/>
      <feMerge><feMergeNode in="b"/><feMergeNode in="SourceGraphic"/></feMerge>
    </filter>
    <filter id="glowMd" x="-40%" y="-80%" width="180%" height="260%">
      <feGaussianBlur stdDeviation="3.4" result="b"/>
      <feMerge><feMergeNode in="b"/><feMergeNode in="SourceGraphic"/></feMerge>
    </filter>
    <filter id="glowLg" x="-35%" y="-70%" width="170%" height="240%">
      <feGaussianBlur stdDeviation="6" result="b"/>
      <feMerge><feMergeNode in="b"/><feMergeNode in="SourceGraphic"/></feMerge>
    </filter>
    <style>
      .m { font-family: ui-monospace, "JetBrains Mono", "IBM Plex Mono", "Space Mono", "SFMono-Regular", Menlo, Consolas, monospace; }
      .blink { animation: blink 1.15s steps(1) infinite; }
      .live  { animation: live 2.8s ease-in-out infinite; }
      .flow  { stroke-dasharray: 4 8; animation: flow 3.2s linear infinite; }
      .rise  { animation: rise .55s ease-out both; }
      @keyframes blink { 0%,49% { opacity: 1; } 50%,100% { opacity: 0; } }
      @keyframes live  { 0%,100% { opacity: .38; } 50% { opacity: 1; } }
      @keyframes flow  { to { stroke-dashoffset: -24; } }
      @keyframes rise  { from { opacity: 0; transform: translateY(7px); }
                          to { opacity: 1; transform: translateY(0); } }
      @media (prefers-reduced-motion: reduce) {
        .blink, .live, .flow, .rise { animation: none; }
      }
    </style>
  </defs>
  <g class="m">
    <rect width="1200" height="520" fill="#03070A"/>
    <rect width="1200" height="520" fill="url(#grid)" opacity="0.5"/>
    <rect width="1200" height="520" fill="url(#scan)"/>
    <path d="M48 44 V20 L54 14 H153.2 L167.2 44 Z" fill="#0B1A23" stroke="#00E5FF" stroke-width="1.2" stroke-opacity="0.6"/>
    <text x="64" y="34.76" font-size="16" fill="#00E5FF" font-weight="600" letter-spacing="1.2">~/whoami</text>
    <rect x="22" y="40" width="1156" height="462" rx="4" fill="#050D13" fill-opacity="1.0" stroke="#1B3541" stroke-width="1.2"/>
    <g stroke="#39FF14" stroke-width="2" fill="none" opacity="0.75"><path d="M22 58 V40 H40"/><path d="M1160 502 H1178 V484"/></g>
    <g fill="none" stroke="#1B7A10" stroke-width="1" opacity="0.75"><circle cx="1000" cy="250" r="116"/><ellipse cx="1000" cy="250" rx="39.4" ry="116"/><ellipse cx="1000" cy="250" rx="78.9" ry="116"/><path d="M909.0 178.1 A 91.0 25.5 0 0 0 1091.0 178.1"/><path d="M888.6 217.5 A 111.4 31.2 0 0 0 1111.4 217.5"/><path d="M888.6 282.5 A 111.4 31.2 0 0 0 1111.4 282.5"/><path d="M909.0 321.9 A 91.0 25.5 0 0 0 1091.0 321.9"/></g>    <g fill="#00E5FF"><circle cx="959" cy="215" r="2.6" class="live" style="animation-delay:-0.0s"/><circle cx="1026" cy="236" r="2.6" class="live" style="animation-delay:-0.5s"/><circle cx="1046" cy="282" r="2.6" class="live" style="animation-delay:-1.0s"/><circle cx="979" cy="299" r="2.6" class="live" style="animation-delay:-1.5s"/><circle cx="1006" cy="186" r="2.6" class="live" style="animation-delay:-2.0s"/></g>
    <rect x="932" y="384" width="136" height="26" rx="2" fill="#08141C" stroke="#1B3541" stroke-width="1"/>
    <text x="948" y="402" font-size="11.5" fill="#6E828F" letter-spacing="1.8">MUSCAT, OMAN</text>
    <text x="68" y="92" font-size="17" fill="#39FF14" font-weight="600">cybersec-iq@github</text>
    <text x="251.6" y="92" font-size="17" fill="#00E5FF">:~$</text>
    <text x="294.2" y="92" font-size="17" fill="#EAF2F7">whoami</text>
    <rect x="1028" y="74" width="104" height="28" rx="3" fill="#08141C" stroke="#39FF14" stroke-width="1.2" stroke-opacity="0.7"/>
    <circle cx="1046" cy="88.0" r="4" fill="#39FF14" class="live"/>
    <text x="1060" y="92.5" font-size="12" fill="#39FF14" letter-spacing="2.2">ONLINE</text>
    <text x="68" y="120" font-size="17" fill="#1B7A10">&gt;</text>
    <text x="68" y="200" font-size="74" fill="#39FF14" font-weight="700" letter-spacing="5" filter="url(#glowLg)">ARYAN</text>
    <text x="342.0" y="200" font-size="74" fill="#00E5FF" font-weight="700" letter-spacing="5" filter="url(#glowLg)">IQ</text>
    <rect x="449.8" y="146" width="14" height="64" fill="#00E5FF" class="blink" filter="url(#glowSm)"/>
    <text x="68" y="234" font-size="15.5" fill="#C3CDD6" xml:space="preserve" letter-spacing="2.2">FULL-STACK DEVELOPER  /  CYBERSECURITY  /  AI SYSTEMS BUILDER</text>
    <rect x="68" y="250" width="300" height="2.4" fill="url(#ruleGreen)"/>
    <rect x="68" y="284" width="780" height="152" rx="3" fill="#03110C" fill-opacity="1.0" stroke="#39FF14" stroke-width="1.2"/>
    <g stroke="#39FF14" stroke-width="1.8" fill="none" opacity="0.6"><path d="M68 298 V284 H82"/><path d="M834 284 H848 V298"/><path d="M68 422 V436 H82"/><path d="M834 436 H848 V422"/></g>
    <g transform="translate(94 313) scale(0.8333)" fill="none" stroke="#00E5FF" stroke-width="2.28" stroke-linecap="square" stroke-linejoin="miter" vector-effect="non-scaling-stroke"><path d="M12 2 a7 7 0 0 1 7 7 c0 5.4-7 13-7 13 S5 14.4 5 9 a7 7 0 0 1 7-7 Z"/><circle cx="12" cy="9" r="2.6"/></g>
    <text x="128" y="328" font-size="16" fill="#00E5FF" letter-spacing="2.6">LOCATION</text>
    <text x="318" y="328" font-size="16" fill="#3A4C58">:</text>
    <text x="360" y="328" font-size="16" fill="#EAF2F7" font-weight="600" letter-spacing="1.8">MUSCAT, OMAN</text>
    <g transform="translate(94 353) scale(0.8333)" fill="none" stroke="#00E5FF" stroke-width="2.28" stroke-linecap="square" stroke-linejoin="miter" vector-effect="non-scaling-stroke"><path d="M2 12 h4 l3-7.5 l4.5 15 l3-7.5 h5.5"/></g>
    <text x="128" y="368" font-size="16" fill="#00E5FF" letter-spacing="2.6">STATUS</text>
    <text x="318" y="368" font-size="16" fill="#3A4C58">:</text>
    <text x="360" y="368" font-size="16" fill="#FFE600" font-weight="600" letter-spacing="1.8">BUILDING</text>
    <circle cx="467.4" cy="363" r="5" fill="#FFE600" class="live"/>
    <g transform="translate(94 393) scale(0.8333)" fill="none" stroke="#00E5FF" stroke-width="2.28" stroke-linecap="square" stroke-linejoin="miter" vector-effect="non-scaling-stroke"><circle cx="12" cy="12" r="9"/><circle cx="12" cy="12" r="4.6"/><circle cx="12" cy="12" r="1.1" fill="#00E5FF"/></g>
    <text x="128" y="408" font-size="16" fill="#00E5FF" letter-spacing="2.6">MISSION</text>
    <text x="318" y="408" font-size="16" fill="#3A4C58">:</text>
    <text x="360" y="408" font-size="16" fill="#39FF14" font-weight="600" letter-spacing="1.8">NOTHING IS IMPOSSIBLE</text>
    <rect x="68" y="452" width="780" height="44" rx="3" fill="#040F16" fill-opacity="1.0" stroke="#1B3541" stroke-width="1.2"/>
    <text x="86" y="479.4" font-size="15" fill="#39FF14" font-weight="600">cybersec-iq@github</text>
    <text x="248.0" y="479.4" font-size="15" fill="#00E5FF">:~$</text>
    <rect x="285.0" y="465.8" width="9.0" height="16.5" fill="#39FF14" class="blink"/>
  </g>
</svg>
